<?xml version="1.0" encoding="UTF-8"?><svg xmlns="http://www.w3.org/2000/svg" xmlns:xlink="http://www.w3.org/1999/xlink" fill-opacity="1" color-rendering="auto" color-interpolation="auto" text-rendering="auto" stroke="black" stroke-linecap="square" width="802" stroke-miterlimit="10" shape-rendering="auto" stroke-opacity="1" fill="black" stroke-dasharray="none" font-weight="normal" stroke-width="1" height="487" font-family="'Dialog'" font-style="normal" stroke-linejoin="miter" font-size="12px" stroke-dashoffset="0" image-rendering="auto">
  <!--Generated by ySVG 2.5-->
  <defs id="genericDefs"/>
  <g>
    <defs id="defs1">
      <clipPath clipPathUnits="userSpaceOnUse" id="clipPath1">
        <path d="M0 0 L802 0 L802 487 L0 487 L0 0 Z"/>
      </clipPath>
      <clipPath clipPathUnits="userSpaceOnUse" id="clipPath2">
        <path d="M26 -15 L828 -15 L828 472 L26 472 L26 -15 Z"/>
      </clipPath>
    </defs>
    <g fill="white" text-rendering="geometricPrecision" shape-rendering="geometricPrecision" transform="translate(-26,15)" stroke="white">
      <rect x="26" width="802" height="487" y="-15" clip-path="url(#clipPath2)" stroke="none"/>
    </g>
    <g fill="rgb(153,204,255)" text-rendering="geometricPrecision" shape-rendering="geometricPrecision" transform="matrix(1,0,0,1,-26,15)" stroke="rgb(153,204,255)">
      <rect x="41.9014" y="0" clip-path="url(#clipPath2)" width="742.6658" rx="4" ry="4" height="235.866" stroke="none"/>
      <rect x="41.9014" y="0" clip-path="url(#clipPath2)" fill="rgb(235,235,235)" width="742.6658" height="21.666" stroke="none"/>
    </g>
    <g font-size="15px" stroke-linecap="butt" transform="matrix(1,0,0,1,-26,15)" text-rendering="geometricPrecision" font-family="sans-serif" shape-rendering="geometricPrecision" stroke-miterlimit="1.45">
      <text x="386.5558" xml:space="preserve" y="16.502" clip-path="url(#clipPath2)" stroke="none">Parsing</text>
      <rect x="41.9014" y="0" clip-path="url(#clipPath2)" fill="none" width="742.6658" stroke-dasharray="6,2" rx="4" ry="4" height="235.866"/>
    </g>
    <g fill="white" text-rendering="geometricPrecision" shape-rendering="geometricPrecision" transform="matrix(1,0,0,1,-26,15)" stroke="white">
      <rect x="316.9228" width="167" height="36" y="184.866" clip-path="url(#clipPath2)" stroke="none"/>
    </g>
    <g text-rendering="geometricPrecision" stroke-miterlimit="1.45" shape-rendering="geometricPrecision" font-family="sans-serif" transform="matrix(1,0,0,1,-26,15)" stroke-linecap="butt">
      <text x="365.4482" xml:space="preserve" y="200.3348" clip-path="url(#clipPath2)" stroke="none">&lt;interface&gt;</text>
      <text x="320.375" xml:space="preserve" y="214.4676" clip-path="url(#clipPath2)" stroke="none">IExperimentalDesignReader</text>
      <rect fill="none" x="316.9228" width="167" height="36" y="184.866" clip-path="url(#clipPath2)"/>
    </g>
    <g fill="white" text-rendering="geometricPrecision" shape-rendering="geometricPrecision" transform="matrix(1,0,0,1,-26,15)" stroke="white">
      <rect x="107.7313" width="117.3616" height="30" y="36.666" clip-path="url(#clipPath2)" stroke="none"/>
    </g>
    <g text-rendering="geometricPrecision" stroke-miterlimit="1.45" shape-rendering="geometricPrecision" font-family="sans-serif" transform="matrix(1,0,0,1,-26,15)" stroke-linecap="butt">
      <text x="115.0547" xml:space="preserve" y="56.2012" clip-path="url(#clipPath2)" stroke="none">SamplePreparator</text>
      <rect fill="none" x="107.7313" width="117.3616" height="30" y="36.666" clip-path="url(#clipPath2)"/>
    </g>
    <g fill="white" text-rendering="geometricPrecision" shape-rendering="geometricPrecision" transform="matrix(1,0,0,1,-26,15)" stroke="white">
      <rect x="268.0612" width="117.3616" height="30" y="36.666" clip-path="url(#clipPath2)" stroke="none"/>
    </g>
    <g text-rendering="geometricPrecision" stroke-miterlimit="1.45" shape-rendering="geometricPrecision" font-family="sans-serif" transform="matrix(1,0,0,1,-26,15)" stroke-linecap="butt">
      <text x="273.8641" xml:space="preserve" y="56.2012" clip-path="url(#clipPath2)" stroke="none">EasyDesignReader</text>
      <rect fill="none" x="268.0612" width="117.3616" height="30" y="36.666" clip-path="url(#clipPath2)"/>
    </g>
    <g fill="white" text-rendering="geometricPrecision" shape-rendering="geometricPrecision" transform="matrix(1,0,0,1,-26,15)" stroke="white">
      <rect x="455.423" width="117.3616" height="30" y="124.866" clip-path="url(#clipPath2)" stroke="none"/>
    </g>
    <g text-rendering="geometricPrecision" stroke-miterlimit="1.45" shape-rendering="geometricPrecision" font-family="sans-serif" transform="matrix(1,0,0,1,-26,15)" stroke-linecap="butt">
      <text x="459.9866" xml:space="preserve" y="144.4012" clip-path="url(#clipPath2)" stroke="none">QBiCDesignReader</text>
      <rect fill="none" x="455.423" width="117.3616" height="30" y="124.866" clip-path="url(#clipPath2)"/>
    </g>
    <g fill="white" text-rendering="geometricPrecision" shape-rendering="geometricPrecision" transform="matrix(1,0,0,1,-26,15)" stroke="white">
      <rect x="225.4228" width="160" height="30" y="81.666" clip-path="url(#clipPath2)" stroke="none"/>
    </g>
    <g text-rendering="geometricPrecision" stroke-miterlimit="1.45" shape-rendering="geometricPrecision" font-family="sans-serif" transform="matrix(1,0,0,1,-26,15)" stroke-linecap="butt">
      <text x="232.0869" xml:space="preserve" y="101.2012" clip-path="url(#clipPath2)" stroke="none">MHCLigandDesignReader</text>
      <rect fill="none" x="225.4228" width="160" height="30" y="81.666" clip-path="url(#clipPath2)"/>
    </g>
    <g fill="white" text-rendering="geometricPrecision" shape-rendering="geometricPrecision" transform="matrix(1,0,0,1,-26,15)" stroke="white">
      <rect x="666.7848" width="68.6276" height="30" y="36.666" clip-path="url(#clipPath2)" stroke="none"/>
    </g>
    <g text-rendering="geometricPrecision" stroke-miterlimit="1.45" shape-rendering="geometricPrecision" font-family="sans-serif" transform="matrix(1,0,0,1,-26,15)" stroke-linecap="butt">
      <text x="671.9746" xml:space="preserve" y="56.2012" clip-path="url(#clipPath2)" stroke="none">ISAReader</text>
      <rect fill="none" x="666.7848" width="68.6276" height="30" y="36.666" clip-path="url(#clipPath2)"/>
    </g>
    <g fill="white" text-rendering="geometricPrecision" shape-rendering="geometricPrecision" transform="matrix(1,0,0,1,-26,15)" stroke="white">
      <rect x="443.7846" width="129" height="30" y="64.866" clip-path="url(#clipPath2)" stroke="none"/>
    </g>
    <g text-rendering="geometricPrecision" stroke-miterlimit="1.45" shape-rendering="geometricPrecision" font-family="sans-serif" transform="matrix(1,0,0,1,-26,15)" stroke-linecap="butt">
      <text x="446.6351" xml:space="preserve" y="84.4012" clip-path="url(#clipPath2)" stroke="none">MetaboDesignReader</text>
      <rect fill="none" x="443.7846" width="129" height="30" y="64.866" clip-path="url(#clipPath2)"/>
      <path fill="none" stroke-dasharray="6,2" d="M211.7185 66.666 L211.7185 180.7185 L233.866 202.866 L311.8823 202.866" clip-path="url(#clipPath2)"/>
      <path stroke-dasharray="6,2" d="M315.8823 202.866 L303.8823 196.866 L315.8823 202.866 L303.8823 208.866 Z" clip-path="url(#clipPath2)" stroke="none"/>
      <path fill="none" stroke-miterlimit="10" d="M315.8823 202.866 L303.8823 196.866 L315.8823 202.866 L303.8823 208.866 Z" clip-path="url(#clipPath2)" stroke-linecap="square"/>
      <path fill="none" stroke-dasharray="6,2" d="M385.4228 57.666 L397.666 57.666 L401.8164 61.8164 L401.8164 169.836" clip-path="url(#clipPath2)"/>
    </g>
    <g stroke-linecap="butt" transform="matrix(1,0,0,1,-26,15)" fill="white" text-rendering="geometricPrecision" shape-rendering="geometricPrecision" stroke-dasharray="6,2" stroke="white" stroke-miterlimit="1.45">
      <path d="M401.8164 184.836 L407.8164 168.836 L395.8164 168.836 Z" stroke="none" clip-path="url(#clipPath2)"/>
      <path fill="none" stroke-dasharray="none" d="M401.8164 184.836 L407.8164 168.836 L395.8164 168.836 Z" clip-path="url(#clipPath2)" stroke="black"/>
      <path fill="none" d="M469.6729 154.866 L469.6729 169.8367" clip-path="url(#clipPath2)" stroke="black"/>
      <path d="M469.6729 184.8367 L475.6729 168.8367 L463.6729 168.8367 Z" clip-path="url(#clipPath2)" stroke="none"/>
      <path fill="none" stroke-dasharray="none" d="M469.6729 184.8367 L475.6729 168.8367 L463.6729 168.8367 Z" clip-path="url(#clipPath2)" stroke="black"/>
      <path fill="none" d="M351.1728 111.666 L351.1728 169.8303" clip-path="url(#clipPath2)" stroke="black"/>
      <path d="M351.1728 184.8303 L357.1728 168.8303 L345.1728 168.8303 Z" clip-path="url(#clipPath2)" stroke="none"/>
      <path fill="none" stroke-dasharray="none" d="M351.1728 184.8303 L357.1728 168.8303 L345.1728 168.8303 Z" clip-path="url(#clipPath2)" stroke="black"/>
      <path fill="none" d="M666.7568 45.666 L437.334 45.666 L414.6037 68.3963 L414.6037 169.8376" clip-path="url(#clipPath2)" stroke="black"/>
      <path d="M414.6037 184.8376 L420.6037 168.8376 L408.6037 168.8376 Z" clip-path="url(#clipPath2)" stroke="none"/>
      <path fill="none" stroke-dasharray="none" d="M414.6037 184.8376 L420.6037 168.8376 L408.6037 168.8376 Z" clip-path="url(#clipPath2)" stroke="black"/>
      <path fill="none" d="M443.739 79.866 L432.134 79.866 L427.3909 84.6091 L427.3909 169.8171" clip-path="url(#clipPath2)" stroke="black"/>
      <path d="M427.3909 184.8171 L433.3909 168.8171 L421.3909 168.8171 Z" clip-path="url(#clipPath2)" stroke="none"/>
      <path fill="none" stroke-dasharray="none" d="M427.3909 184.8171 L433.3909 168.8171 L421.3909 168.8171 Z" clip-path="url(#clipPath2)" stroke="black"/>
    </g>
    <g fill="rgb(255,204,153)" text-rendering="geometricPrecision" shape-rendering="geometricPrecision" transform="matrix(1,0,0,1,-26,15)" stroke="rgb(255,204,153)">
      <rect x="41.9014" y="296.866" clip-path="url(#clipPath2)" width="617.8514" rx="4" ry="4" height="159.666" stroke="none"/>
      <rect x="41.9014" y="296.866" clip-path="url(#clipPath2)" fill="rgb(235,235,235)" width="617.8514" height="21.666" stroke="none"/>
    </g>
    <g font-size="15px" stroke-linecap="butt" transform="matrix(1,0,0,1,-26,15)" text-rendering="geometricPrecision" font-family="sans-serif" shape-rendering="geometricPrecision" stroke-miterlimit="1.45">
      <text x="326.3203" xml:space="preserve" y="313.368" clip-path="url(#clipPath2)" stroke="none"> Model</text>
      <rect x="41.9014" y="296.866" clip-path="url(#clipPath2)" fill="none" width="617.8514" stroke-dasharray="6,2" rx="4" ry="4" height="159.666"/>
    </g>
    <g fill="white" text-rendering="geometricPrecision" shape-rendering="geometricPrecision" transform="matrix(1,0,0,1,-26,15)" stroke="white">
      <rect x="137.4014" width="149" height="30" y="404.532" clip-path="url(#clipPath2)" stroke="none"/>
    </g>
    <g text-rendering="geometricPrecision" stroke-miterlimit="1.45" shape-rendering="geometricPrecision" font-family="sans-serif" transform="matrix(1,0,0,1,-26,15)" stroke-linecap="butt">
      <text x="142.1719" xml:space="preserve" y="424.0672" clip-path="url(#clipPath2)" stroke="none">SampleTypeComparator</text>
      <rect fill="none" x="137.4014" width="149" height="30" y="404.532" clip-path="url(#clipPath2)"/>
    </g>
    <g fill="white" text-rendering="geometricPrecision" shape-rendering="geometricPrecision" transform="matrix(1,0,0,1,-26,15)" stroke="white">
      <rect x="57.9014" width="129" height="30" y="336.532" clip-path="url(#clipPath2)" stroke="none"/>
    </g>
    <g text-rendering="geometricPrecision" stroke-miterlimit="1.45" shape-rendering="geometricPrecision" font-family="sans-serif" transform="matrix(1,0,0,1,-26,15)" stroke-linecap="butt">
      <text x="60.5088" xml:space="preserve" y="356.0672" clip-path="url(#clipPath2)" stroke="none">SampleSummaryBean</text>
      <rect fill="none" x="57.9014" width="129" height="30" y="336.532" clip-path="url(#clipPath2)"/>
    </g>
    <g fill="white" text-rendering="geometricPrecision" shape-rendering="geometricPrecision" transform="matrix(1,0,0,1,-26,15)" stroke="white">
      <rect x="269.6728" width="129" height="30" y="336.532" clip-path="url(#clipPath2)" stroke="none"/>
    </g>
    <g text-rendering="geometricPrecision" stroke-miterlimit="1.45" shape-rendering="geometricPrecision" font-family="sans-serif" transform="matrix(1,0,0,1,-26,15)" stroke-linecap="butt">
      <text x="270.7509" xml:space="preserve" y="356.0672" clip-path="url(#clipPath2)" stroke="none">StructuredExperiment</text>
      <rect fill="none" x="269.6728" width="129" height="30" y="336.532" clip-path="url(#clipPath2)"/>
    </g>
    <g fill="white" text-rendering="geometricPrecision" shape-rendering="geometricPrecision" transform="matrix(1,0,0,1,-26,15)" stroke="white">
      <rect x="462.0986" width="76" height="30" y="336.532" clip-path="url(#clipPath2)" stroke="none"/>
    </g>
    <g text-rendering="geometricPrecision" stroke-miterlimit="1.45" shape-rendering="geometricPrecision" font-family="sans-serif" transform="matrix(1,0,0,1,-26,15)" stroke-linecap="butt">
      <text x="469.5215" xml:space="preserve" y="356.0672" clip-path="url(#clipPath2)" stroke="none">ISAToQBiC</text>
      <rect fill="none" x="462.0986" width="76" height="30" y="336.532" clip-path="url(#clipPath2)"/>
    </g>
    <g fill="white" text-rendering="geometricPrecision" shape-rendering="geometricPrecision" transform="matrix(1,0,0,1,-26,15)" stroke="white">
      <rect x="546.4444" width="98.3084" height="30" y="336.532" clip-path="url(#clipPath2)" stroke="none"/>
    </g>
    <g text-rendering="geometricPrecision" stroke-miterlimit="1.45" shape-rendering="geometricPrecision" font-family="sans-serif" transform="matrix(1,0,0,1,-26,15)" stroke-linecap="butt">
      <text x="552.626" xml:space="preserve" y="356.0672" clip-path="url(#clipPath2)" stroke="none">ISAToReadable</text>
      <rect fill="none" x="546.4444" width="98.3084" height="30" y="336.532" clip-path="url(#clipPath2)"/>
    </g>
    <g fill="white" text-rendering="geometricPrecision" shape-rendering="geometricPrecision" transform="matrix(1,0,0,1,-26,15)" stroke="white">
      <rect x="462.0986" width="160" height="36" y="404.532" clip-path="url(#clipPath2)" stroke="none"/>
    </g>
    <g text-rendering="geometricPrecision" stroke-miterlimit="1.45" shape-rendering="geometricPrecision" font-family="sans-serif" transform="matrix(1,0,0,1,-26,15)" stroke-linecap="butt">
      <text x="507.124" xml:space="preserve" y="420.0008" clip-path="url(#clipPath2)" stroke="none">&lt;interface&gt;</text>
      <text x="467.1777" xml:space="preserve" y="434.1336" clip-path="url(#clipPath2)" stroke="none">IKeywordToUITextMapper</text>
      <rect fill="none" x="462.0986" width="160" height="36" y="404.532" clip-path="url(#clipPath2)"/>
    </g>
    <g fill="silver" text-rendering="geometricPrecision" shape-rendering="geometricPrecision" transform="matrix(1,0,0,1,-26,15)" stroke="silver">
      <rect x="716.0986" width="96" height="30" y="381.532" clip-path="url(#clipPath2)" stroke="none"/>
    </g>
    <g text-rendering="geometricPrecision" stroke-miterlimit="1.45" shape-rendering="geometricPrecision" font-family="sans-serif" transform="matrix(1,0,0,1,-26,15)" stroke-linecap="butt">
      <text x="719.1221" xml:space="preserve" y="401.0672" clip-path="url(#clipPath2)" stroke="none">data-model-lib</text>
      <rect fill="none" x="716.0986" width="96" height="30" y="381.532" clip-path="url(#clipPath2)"/>
    </g>
    <g fill="silver" text-rendering="geometricPrecision" shape-rendering="geometricPrecision" transform="matrix(1,0,0,1,-26,15)" stroke="silver">
      <rect x="666.7848" width="96" height="30" y="336.532" clip-path="url(#clipPath2)" stroke="none"/>
    </g>
    <g text-rendering="geometricPrecision" stroke-miterlimit="1.45" shape-rendering="geometricPrecision" font-family="sans-serif" transform="matrix(1,0,0,1,-26,15)" stroke-linecap="butt">
      <text x="671.9205" xml:space="preserve" y="356.0672" clip-path="url(#clipPath2)" stroke="none">isa-creator-lib</text>
      <rect fill="none" x="666.7848" width="96" height="30" y="336.532" clip-path="url(#clipPath2)"/>
      <path fill="none" stroke-dasharray="6,2" d="M196.9014 66.666 L196.9014 399.4908" clip-path="url(#clipPath2)"/>
      <path stroke-dasharray="6,2" d="M196.9014 403.4908 L202.9014 391.4908 L196.9014 403.4908 L190.9014 391.4908 Z" clip-path="url(#clipPath2)" stroke="none"/>
      <path fill="none" stroke-miterlimit="10" d="M196.9014 403.4908 L202.9014 391.4908 L196.9014 403.4908 L190.9014 391.4908 Z" clip-path="url(#clipPath2)" stroke-linecap="square"/>
      <path fill="none" stroke-dasharray="6,2" d="M139.4547 66.666 L139.4547 331.4991" clip-path="url(#clipPath2)"/>
      <path stroke-dasharray="6,2" d="M139.4547 335.4991 L145.4547 323.4991 L139.4547 335.4991 L133.4547 323.4991 Z" clip-path="url(#clipPath2)" stroke="none"/>
      <path fill="none" stroke-miterlimit="10" d="M139.4547 335.4991 L145.4547 323.4991 L139.4547 335.4991 L133.4547 323.4991 Z" clip-path="url(#clipPath2)" stroke-linecap="square"/>
      <path fill="none" stroke-dasharray="6,2" d="M204.31 66.666 L204.31 332.31 L223.532 351.532 L264.6277 351.532" clip-path="url(#clipPath2)"/>
      <path stroke-dasharray="6,2" d="M268.6277 351.532 L256.6277 345.532 L268.6277 351.532 L256.6277 357.532 Z" clip-path="url(#clipPath2)" stroke="none"/>
      <path fill="none" stroke-miterlimit="10" d="M268.6277 351.532 L256.6277 345.532 L268.6277 351.532 L256.6277 357.532 Z" clip-path="url(#clipPath2)" stroke-linecap="square"/>
      <path fill="none" stroke-dasharray="6,2" d="M328 235.8931 L328 331.5211" clip-path="url(#clipPath2)"/>
      <path stroke-dasharray="6,2" d="M328 335.5211 L334 323.5211 L328 335.5211 L322 323.5211 Z" clip-path="url(#clipPath2)" stroke="none"/>
      <path fill="none" stroke-miterlimit="10" d="M328 335.5211 L334 323.5211 L328 335.5211 L322 323.5211 Z" clip-path="url(#clipPath2)" stroke-linecap="square"/>
      <path fill="none" stroke-dasharray="6,2" d="M685.4417 66.666 L685.4417 292.5583 L666.301 311.699 L507.301 311.699 L500.0986 318.9014 L500.0986 331.4976" clip-path="url(#clipPath2)"/>
      <path stroke-dasharray="6,2" d="M500.0986 335.4976 L506.0986 323.4976 L500.0986 335.4976 L494.0986 323.4976 Z" clip-path="url(#clipPath2)" stroke="none"/>
      <path fill="none" stroke-miterlimit="10" d="M500.0986 335.4976 L506.0986 323.4976 L500.0986 335.4976 L494.0986 323.4976 Z" clip-path="url(#clipPath2)" stroke-linecap="square"/>
      <path fill="none" stroke-dasharray="6,2" d="M666.7473 57.666 L628.334 57.666 L612.2687 73.7313 L612.2687 331.4999" clip-path="url(#clipPath2)"/>
      <path stroke-dasharray="6,2" d="M612.2687 335.4999 L618.2687 323.4999 L612.2687 335.4999 L606.2687 323.4999 Z" clip-path="url(#clipPath2)" stroke="none"/>
      <path fill="none" stroke-miterlimit="10" d="M612.2687 335.4999 L618.2687 323.4999 L612.2687 335.4999 L606.2687 323.4999 Z" clip-path="url(#clipPath2)" stroke-linecap="square"/>
      <path fill="none" stroke-dasharray="6,2" d="M500.0986 366.532 L500.0986 389.4949" clip-path="url(#clipPath2)"/>
    </g>
    <g stroke-linecap="butt" transform="matrix(1,0,0,1,-26,15)" fill="white" text-rendering="geometricPrecision" shape-rendering="geometricPrecision" stroke-dasharray="6,2" stroke="white" stroke-miterlimit="1.45">
      <path d="M500.0986 404.4949 L506.0986 388.4949 L494.0986 388.4949 Z" stroke="none" clip-path="url(#clipPath2)"/>
      <path fill="none" stroke-dasharray="none" d="M500.0986 404.4949 L506.0986 388.4949 L494.0986 388.4949 Z" clip-path="url(#clipPath2)" stroke="black"/>
      <path fill="none" d="M584.2715 366.532 L584.2715 389.4949" clip-path="url(#clipPath2)" stroke="black"/>
      <path d="M584.2715 404.4949 L590.2715 388.4949 L578.2715 388.4949 Z" clip-path="url(#clipPath2)" stroke="none"/>
      <path fill="none" stroke-dasharray="none" d="M584.2715 404.4949 L590.2715 388.4949 L578.2715 388.4949 Z" clip-path="url(#clipPath2)" stroke="black"/>
      <path fill="none" d="M770.3329 235.866 L770.3329 376.4965" clip-path="url(#clipPath2)" stroke="black"/>
      <path fill="black" d="M770.3329 380.4965 L776.3329 368.4965 L770.3329 380.4965 L764.3329 368.4965 Z" clip-path="url(#clipPath2)" stroke="none"/>
    </g>
    <g text-rendering="geometricPrecision" shape-rendering="geometricPrecision" transform="matrix(1,0,0,1,-26,15)">
      <path fill="none" d="M770.3329 380.4965 L776.3329 368.4965 L770.3329 380.4965 L764.3329 368.4965 Z" clip-path="url(#clipPath2)"/>
      <path fill="none" stroke-miterlimit="1.45" stroke-dasharray="6,2" d="M716.7555 66.666 L714.8216 331.4992" clip-path="url(#clipPath2)" stroke-linecap="butt"/>
      <path stroke-miterlimit="1.45" stroke-dasharray="6,2" d="M714.7924 335.4991 L720.8799 323.5433 L714.7924 335.4991 L708.8802 323.4556 Z" clip-path="url(#clipPath2)" stroke-linecap="butt" stroke="none"/>
      <path fill="none" d="M714.7924 335.4991 L720.8799 323.5433 L714.7924 335.4991 L708.8802 323.4556 Z" clip-path="url(#clipPath2)"/>
    </g>
  </g>
</svg>
